<?xml version="1.0" encoding="UTF-8" standalone="no"?>
<!-- Generator: Adobe Illustrator 19.0.0, SVG Export Plug-In . SVG Version: 6.00 Build 0)  -->

<svg
   xmlns:dc="http://purl.org/dc/elements/1.1/"
   xmlns:cc="http://creativecommons.org/ns#"
   xmlns:rdf="http://www.w3.org/1999/02/22-rdf-syntax-ns#"
   xmlns:svg="http://www.w3.org/2000/svg"
   xmlns="http://www.w3.org/2000/svg"
   xmlns:sodipodi="http://sodipodi.sourceforge.net/DTD/sodipodi-0.dtd"
   xmlns:inkscape="http://www.inkscape.org/namespaces/inkscape"
   version="1.1"
   id="Layer_1"
   x="0px"
   y="0px"
   viewBox="0 0 256 256"
   xml:space="preserve"
   sodipodi:docname="ghost.svg"
   width="256"
   height="256"
   inkscape:version="0.92.5 (2060ec1f9f, 2020-04-08)"><metadata
   id="metadata43"><rdf:RDF><cc:Work
       rdf:about=""><dc:format>image/svg+xml</dc:format><dc:type
         rdf:resource="http://purl.org/dc/dcmitype/StillImage" /><dc:title /></cc:Work></rdf:RDF></metadata><defs
   id="defs41" /><sodipodi:namedview
   pagecolor="#ffffff"
   bordercolor="#666666"
   borderopacity="1"
   objecttolerance="10"
   gridtolerance="10"
   guidetolerance="10"
   inkscape:pageopacity="0"
   inkscape:pageshadow="2"
   inkscape:window-width="1920"
   inkscape:window-height="1016"
   id="namedview39"
   showgrid="false"
   inkscape:zoom="3.2996556"
   inkscape:cx="73.290433"
   inkscape:cy="125.81467"
   inkscape:window-x="0"
   inkscape:window-y="27"
   inkscape:window-maximized="1"
   inkscape:current-layer="Layer_1" />

<g
   id="g8"
   transform="translate(0,-256)">
</g>
<g
   id="g10"
   transform="translate(0,-256)">
</g>
<g
   id="g12"
   transform="translate(0,-256)">
</g>
<g
   id="g14"
   transform="translate(0,-256)">
</g>
<g
   id="g16"
   transform="translate(0,-256)">
</g>
<g
   id="g18"
   transform="translate(0,-256)">
</g>
<g
   id="g20"
   transform="translate(0,-256)">
</g>
<g
   id="g22"
   transform="translate(0,-256)">
</g>
<g
   id="g24"
   transform="translate(0,-256)">
</g>
<g
   id="g26"
   transform="translate(0,-256)">
</g>
<g
   id="g28"
   transform="translate(0,-256)">
</g>
<g
   id="g30"
   transform="translate(0,-256)">
</g>
<g
   id="g32"
   transform="translate(0,-256)">
</g>
<g
   id="g34"
   transform="translate(0,-256)">
</g>
<g
   id="g36"
   transform="translate(0,-256)">
</g>
<path
   style="fill:#dcd8d0;fill-opacity:1;stroke-width:0.30544326"
   d="m 93.75468,255.56953 c -2.349612,-1.24121 -6.765384,-5.43029 -18.757047,-17.794 -6.547188,-6.75022 -12.024272,-12.32068 -12.171302,-12.37876 -0.147026,-0.0583 -4.204958,3.81052 -9.01762,8.59682 -9.342219,9.29118 -11.740532,11.44181 -14.09744,12.64174 -2.686346,1.36774 -4.622936,0.92948 -7.95949,-1.80135 l -1.683722,-1.37813 -0.207929,-11.7322 C 29.530269,213.11084 29.606934,113.0299 29.95926,102.37703 30.442333,87.768915 31.767748,79.035543 35.063534,68.74409 38.690025,57.420062 43.634344,48.207131 51.605239,37.921516 54.509159,34.174326 64.332644,24.444289 68.369529,21.316711 76.152317,15.286872 82.927022,11.271101 91.554143,7.5734767 109.4809,-0.10983625 130.44048,-1.996091 150.1868,2.2971321 c 19.47505,4.2342038 34.29983,12.6579499 49.82169,28.3097149 7.14925,7.209119 11.40952,12.789965 15.79074,20.685642 4.40611,7.940581 9.11264,19.834194 10.84437,27.404261 0.77535,3.389166 1.09199,6.889467 1.3986,15.459335 0.29517,8.249985 0.86705,85.059655 0.93843,126.037465 l 0.0371,21.63413 -1.55312,1.94096 c -2.20183,2.75147 -3.31305,3.43393 -5.78829,3.55499 -1.7753,0.0817 -2.19459,-0.008 -3.53762,-0.79886 -2.21665,-1.30547 -7.93638,-6.66135 -15.20168,-14.23468 -3.50064,-3.64912 -6.50477,-6.63465 -6.67581,-6.63465 -0.17109,0 -5.3972,5.06631 -11.61367,11.25836 -15.22224,15.16265 -19.76149,19.15429 -21.782,19.15429 -1.99142,0 -7.02748,-4.43795 -22.62458,-19.93798 -5.99882,-5.96139 -11.02158,-10.79141 -11.1617,-10.73334 -0.1401,0.0583 -4.58099,4.58326 -9.86859,10.05599 -20.273323,20.98397 -21.69216,22.10518 -25.45595,20.11677 z m -0.44397,-122.5339 c 8.14791,-2.19086 13.42201,-6.24372 16.72908,-12.85527 7.67723,-15.34831 -0.48642,-33.358526 -16.799312,-37.061527 -2.628571,-0.597105 -7.686109,-0.605264 -10.491123,-0.01165 -9.974586,2.089637 -17.750389,9.475673 -20.058368,19.052937 -0.740576,3.07323 -0.664712,8.73617 0.159458,11.9027 2.636317,10.12923 10.996059,17.87937 21.31293,19.75873 2.131326,0.38836 6.042648,0.0583 9.147333,-0.7802 z m 83.16555,0.14345 c 9.74,-2.28265 16.7571,-9.01315 19.29809,-18.50971 1.288,-4.8137 0.78812,-12.4787 -1.08143,-16.581824 -2.23701,-4.909338 -7.93654,-10.872351 -12.70252,-13.289699 -3.39855,-1.723675 -8.82581,-2.459677 -13.53458,-1.835404 -11.30713,1.499063 -20.14572,9.292356 -22.41738,19.766327 -0.58036,2.67613 -0.494,8.73663 0.15901,11.15748 1.23317,4.57137 3.49622,8.28765 7.4756,12.27613 6.99173,7.00772 13.84442,9.11626 22.80321,7.0167 z"
   id="path111"
   inkscape:connector-curvature="0" /><path
   style="fill:#ffcc00;fill-opacity:1;stroke-width:0.30306193"
   d="m 94.050179,255.64859 c -2.040904,-1.12069 -5.312118,-4.14906 -14.40928,-13.3396 -5.258161,-5.31213 -11.114866,-11.26086 -13.0149,-13.2194 -1.900035,-1.95854 -3.640423,-3.56098 -3.867528,-3.56098 -0.227106,0 -3.712285,3.24134 -7.744843,7.20298 -10.008052,9.83204 -12.0599,11.72699 -14.185704,13.10096 -3.243326,2.09626 -5.265371,1.88098 -8.884971,-0.94596 l -1.641902,-1.28235 -0.246505,-2.59775 C 29.642579,236.66505 29.789541,104.8377 30.214038,97.939541 30.908952,86.647066 31.980869,79.668262 34.21811,71.870709 38.93006,55.44794 46.628366,42.479702 59.023546,30.084521 65.20769,23.900378 69.334212,20.433314 75.108808,16.569841 88.018679,7.9325405 101.74172,2.8410886 117.68901,0.77195766 c 5.91815,-0.767869 17.59188,-0.69536711 23.86185,0.14819847 19.72843,2.65427477 35.68427,9.68308587 50.24891,22.13546687 3.41991,2.923933 11.35306,10.798109 13.92042,13.816939 7.79508,9.165833 13.96115,20.557691 18.70037,34.54906 2.44036,7.204579 2.99837,10.568179 3.41882,20.608211 0.27649,6.602132 0.73735,59.971617 1.05077,121.683687 l 0.1424,28.03755 -1.7674,2.14169 c -1.9249,2.33253 -3.15009,3.086 -5.4636,3.36 -1.23686,0.14649 -1.78892,0.0384 -3.10621,-0.6084 -2.13971,-1.05055 -7.11071,-5.58992 -15.49081,-14.14575 l -6.91837,-7.06344 -3.08267,3.01443 c -1.69548,1.65793 -7.17402,7.03373 -12.17454,11.94622 -12.84738,12.6212 -16.16385,15.43899 -18.17133,15.43899 -2.03556,0 -5.26261,-2.80776 -21.5485,-18.74865 -6.49038,-6.3529 -11.93367,-11.55226 -12.0962,-11.55414 -0.16253,-0.002 -6.57229,6.32849 -14.24391,14.06748 -8.68586,8.76212 -14.60198,14.49279 -15.680709,15.18916 -2.044423,1.31976 -3.858391,1.61756 -5.238122,0.85993 z M 93.747117,132.96248 c 1.500156,-0.43084 4.159525,-1.48595 5.909707,-2.34468 2.774456,-1.3613 3.533426,-1.91419 5.923896,-4.31543 2.18911,-2.19897 3.02598,-3.30764 4.15189,-5.50033 5.13361,-9.9977 4.08334,-21.13541 -2.77284,-29.404897 -9.966427,-12.020851 -29.086125,-11.653898 -39.321293,0.754676 -4.368695,5.296374 -6.238927,12.070641 -5.291195,19.165531 1.373644,10.2833 8.802513,18.77348 19.191682,21.93347 2.226211,0.67713 2.90443,0.74831 5.995383,0.62925 2.523,-0.0972 4.238248,-0.35052 6.21277,-0.91759 z m 83.342033,0.13059 c 12.88441,-3.43089 20.70952,-14.74358 19.28477,-27.87982 -0.19843,-1.82946 -0.62467,-4.18037 -0.94721,-5.224238 -1.05948,-3.428939 -3.79686,-7.389192 -7.49418,-10.842086 -2.99228,-2.794455 -5.49019,-4.386924 -8.41889,-5.367208 -2.22752,-0.745587 -2.83076,-0.812746 -7.42502,-0.826629 -4.32048,-0.01306 -5.32151,0.07793 -7.36091,0.669049 -7.93447,2.299809 -13.84372,7.194981 -17.04216,14.117585 -1.69042,3.658707 -2.03708,5.695187 -1.89121,11.110047 0.13772,5.11221 0.35325,6.05614 2.249,9.84951 3.43791,6.87919 11.20341,13.36272 17.82096,14.879 2.56161,0.58694 8.09708,0.34766 11.22485,-0.48521 z"
   id="path28"
   inkscape:connector-curvature="0" /></svg>