<?xml version="1.0" encoding="UTF-8" standalone="no"?>
<!-- Generator: Adobe Illustrator 19.0.0, SVG Export Plug-In . SVG Version: 6.00 Build 0)  -->

<svg
   xmlns:dc="http://purl.org/dc/elements/1.1/"
   xmlns:cc="http://creativecommons.org/ns#"
   xmlns:rdf="http://www.w3.org/1999/02/22-rdf-syntax-ns#"
   xmlns:svg="http://www.w3.org/2000/svg"
   xmlns="http://www.w3.org/2000/svg"
   xmlns:sodipodi="http://sodipodi.sourceforge.net/DTD/sodipodi-0.dtd"
   xmlns:inkscape="http://www.inkscape.org/namespaces/inkscape"
   version="1.1"
   id="Layer_1"
   x="0px"
   y="0px"
   viewBox="0 0 22 22"
   xml:space="preserve"
   sodipodi:docname="ghost-paused.svg"
   width="22"
   height="22"
   inkscape:version="0.92.5 (2060ec1f9f, 2020-04-08)"><metadata
   id="metadata43"><rdf:RDF><cc:Work
       rdf:about=""><dc:format>image/svg+xml</dc:format><dc:type
         rdf:resource="http://purl.org/dc/dcmitype/StillImage" /><dc:title></dc:title></cc:Work></rdf:RDF></metadata><defs
   id="defs41" /><sodipodi:namedview
   pagecolor="#000000"
   bordercolor="#666666"
   borderopacity="1"
   objecttolerance="10"
   gridtolerance="10"
   guidetolerance="10"
   inkscape:pageopacity="0"
   inkscape:pageshadow="2"
   inkscape:window-width="791"
   inkscape:window-height="414"
   id="namedview39"
   showgrid="false"
   inkscape:zoom="38.090898"
   inkscape:cx="5.9211867"
   inkscape:cy="11.704764"
   inkscape:window-x="310"
   inkscape:window-y="263"
   inkscape:window-maximized="0"
   inkscape:current-layer="Layer_1" />
<g
   id="g6"
   transform="translate(0,-490)">
	<g
   id="g4">
		<path
   d="M 255.633,0 C 145.341,0.198 55.994,89.667 55.994,200.006 v 278.66 c 0,14.849 17.953,22.285 28.453,11.786 l 38.216,-39.328 54.883,55.994 c 6.51,6.509 17.063,6.509 23.572,0 L 256,451.124 l 54.883,55.994 c 6.509,6.509 17.062,6.509 23.571,0 l 54.884,-55.994 38.216,39.327 c 10.499,10.499 28.453,3.063 28.453,-11.786 V 201.719 C 456.006,91.512 365.84,-0.197 255.633,0 Z m -82.969,266.674 c -27.572,0 -50.001,-22.429 -50.001,-50.001 0,-27.572 22.43,-50.001 50.001,-50.001 27.571,0 50.001,22.43 50.001,50.001 0,27.571 -22.429,50.001 -50.001,50.001 z m 166.672,0 c -27.572,0 -50.001,-22.429 -50.001,-50.001 0,-27.572 22.43,-50.001 50.001,-50.001 27.571,0 50.001,22.43 50.001,50.001 0,27.571 -22.429,50.001 -50.001,50.001 z"
   id="path2"
   inkscape:connector-curvature="0" />
	</g>
</g>
<g
   id="g8"
   transform="translate(0,-490)">
</g>
<g
   id="g10"
   transform="translate(0,-490)">
</g>
<g
   id="g12"
   transform="translate(0,-490)">
</g>
<g
   id="g14"
   transform="translate(0,-490)">
</g>
<g
   id="g16"
   transform="translate(0,-490)">
</g>
<g
   id="g18"
   transform="translate(0,-490)">
</g>
<g
   id="g20"
   transform="translate(0,-490)">
</g>
<g
   id="g22"
   transform="translate(0,-490)">
</g>
<g
   id="g24"
   transform="translate(0,-490)">
</g>
<g
   id="g26"
   transform="translate(0,-490)">
</g>
<g
   id="g28"
   transform="translate(0,-490)">
</g>
<g
   id="g30"
   transform="translate(0,-490)">
</g>
<g
   id="g32"
   transform="translate(0,-490)">
</g>
<g
   id="g34"
   transform="translate(0,-490)">
</g>
<g
   id="g36"
   transform="translate(0,-490)">
</g>
<path
   style="fill:#ffffff;stroke-width:0.09362458;image-rendering:auto"
   d="m 6.3897914,20.6746 -1.29276,-1.32923 -0.95582,0.95258 c -1.02852,1.02501 -1.23757,1.12198 -1.66785,0.77363 l -0.22103,-0.17893 -0.0278,-5.93007 c -0.0171,-3.64359 0.0103,-6.3547503 0.071,-7.0315003 0.18509,-2.06291 0.9328,-3.75888 2.29054,-5.19542 2.51219,-2.65798998 6.2023796,-3.44803998 9.5879996,-2.05273998 1.35005,0.55637998 2.93469,1.88613998 3.79238,3.18236998 0.48389,0.73132 0.93651,1.73139 1.19455,2.63936 0.21089,0.74209 0.21316,0.81121 0.24667,7.4950003 l 0.0338,6.746 -0.19857,0.25244 c -0.14072,0.17889 -0.28464,0.25243 -0.49405,0.25243 -0.2503,0 -0.43771,-0.14391 -1.22516,-0.94077 l -0.92966,-0.94077 -1.32657,1.31527 c -0.94831,0.94022 -1.38918,1.31527 -1.54613,1.31527 -0.15706,0 -0.60123,-0.37843 -1.56049,-1.32951 l -1.34093,-1.32951 -1.2878096,1.3319 c -1.0944,1.13188 -1.32999,1.33187 -1.56868,1.33167 -0.23807,-1.8e-4 -0.47791,-0.20283 -1.57364,-1.32947 z m 1.46936,-9.29358 c 0.62403,-0.18781 1.07192,-0.56496 1.33056,-1.12043 0.9011696,-1.9354103 -1.04056,-3.8514503 -2.94257,-2.9036403 -1.79688,0.89542 -1.51082,3.4721503 0.45175,4.0691403 0.36533,0.11112 0.68215,0.0988 1.16026,-0.0451 z m 7.1953396,0.004 c 1.20163,-0.36164 1.82454,-1.5647799 1.45477,-2.8099103 -0.14986,-0.50464 -0.86469,-1.22594 -1.34791,-1.36011 -1.3388,-0.37174 -2.70362,0.44028 -2.89597,1.723 -0.10804,0.72047 0.1038,1.3291003 0.65419,1.8794903 0.65447,0.65447 1.28718,0.82266 2.13492,0.56753 z"
   id="path45"
   inkscape:connector-curvature="0" /><path
   style="fill:#7c7c7c;fill-opacity:1;stroke-width:0.02625299"
   d="M 7.7669473,21.933313 C 7.5645176,21.826877 7.1840789,21.46768 6.1509429,20.407535 5.586873,19.82872 5.1149975,19.351071 5.1023302,19.346094 c -0.012667,-0.005 -0.3622762,0.326741 -0.7769088,0.737151 -0.8048744,0.79668 -1.0114999,0.981092 -1.2145582,1.08399 -0.2314408,0.11728 -0.3982868,0.0797 -0.685746,-0.154465 L 2.2800569,20.894604 2.2621433,19.888597 C 2.2337243,18.292615 2.240329,9.710982 2.2706794,8.7975317 2.3122987,7.5449259 2.4264889,6.796067 2.7104357,5.9136118 3.0228743,4.942609 3.4488498,4.1526342 4.1355784,3.2706733 4.3857643,2.9493611 5.2321019,2.1150375 5.5798978,1.8468564 6.2504202,1.3298246 6.8340917,0.9854783 7.5773572,0.66842308 9.1218285,0.00959702 10.927591,-0.15213593 12.628826,0.21598869 c 1.677863,0.36306727 2.955085,1.08537751 4.292364,2.42747151 0.61594,0.6181585 0.982981,1.0967017 1.360443,1.7737311 0.379606,0.6808753 0.785095,1.7007181 0.934291,2.3498302 0.0668,0.2906085 0.09408,0.5907503 0.120496,1.3255886 0.02543,0.707406 0.0747,7.2935999 0.08085,10.8073249 l 0.0032,1.855056 -0.133808,0.166425 c -0.189697,0.235936 -0.285434,0.294457 -0.498688,0.304832 -0.15295,0.0074 -0.189074,-6.77e-4 -0.304781,-0.0685 -0.190975,-0.111938 -0.683755,-0.571188 -1.309694,-1.220578 -0.301596,-0.312896 -0.560415,-0.568902 -0.575151,-0.568902 -0.01474,0 -0.464993,0.434418 -1.00057,0.965374 -1.311465,1.300151 -1.702542,1.642423 -1.876618,1.642423 -0.17157,0 -0.605449,-0.380548 -1.94921,-1.709623 -0.516825,-0.511176 -0.949559,-0.925336 -0.961631,-0.920355 -0.01207,0.005 -0.394673,0.393004 -0.8502234,0.862276 -1.7466416,1.799306 -1.8688808,1.895447 -2.1931483,1.72495 z M 7.728697,11.426409 C 8.4306762,11.238547 8.8850643,10.891032 9.1699828,10.324114 9.8314111,9.0080358 9.1280756,7.4637215 7.7226462,7.1461955 7.4961829,7.0950311 7.0604531,7.0943086 6.8187885,7.1446965 5.9594328,7.3238773 5.2895122,7.95721 5.0906694,8.778434 5.0268654,9.0419455 5.0334014,9.5275263 5.1044074,9.7990537 5.331538,10.667601 6.0517676,11.33215 6.9406127,11.493303 c 0.1836234,0.03329 0.5206015,0.0047 0.7880841,-0.06689 z m 7.165088,0.0123 c 0.839145,-0.195733 1.4437,-0.772846 1.662618,-1.5871495 0.110967,-0.4127593 0.0679,-1.0700111 -0.09317,-1.4218366 -0.192729,-0.4209646 -0.683769,-0.932275 -1.09438,-1.139551 -0.2928,-0.1478049 -0.760383,-0.2109155 -1.166065,-0.1573859 -0.97416,0.1285399 -1.735645,0.7967985 -1.931359,1.6949078 -0.05,0.2294661 -0.04256,0.7491378 0.0137,0.9567154 0.106243,0.3919778 0.301215,0.7106378 0.644057,1.0526368 0.602369,0.60089 1.192759,0.781698 1.9646,0.601664 z"
   id="path106"
   inkscape:connector-curvature="0" /></svg>